<svg id="Capa_1" enable-background="new 0 0 512 512" height="512" viewBox="0 0 512 512" width="512" xmlns="http://www.w3.org/2000/svg" xmlns:xlink="http://www.w3.org/1999/xlink"><linearGradient id="SVGID_1_" gradientUnits="userSpaceOnUse" x1="0" x2="512" y1="256" y2="256"><stop offset="0" stop-color="#80d8ff"/><stop offset="1" stop-color="#ea80fc"/></linearGradient><g><path d="m256 0c-141.484 0-256 114.497-256 256 0 141.484 114.497 256 256 256 141.484 0 256-114.497 256-256 0-141.484-114.497-256-256-256zm166.226 393.942-13.492-13.492c-7.811-7.811-20.474-7.811-28.284 0s-7.811 20.474 0 28.284l13.492 13.492c-33.592 27.976-74.406 44.882-117.942 48.853v-19.079c0-11.046-8.954-20-20-20s-20 8.954-20 20v19.079c-43.536-3.971-84.35-20.877-117.942-48.853l13.492-13.492c7.811-7.811 7.811-20.474 0-28.284s-20.474-7.811-28.284 0l-13.492 13.492c-27.976-33.592-44.882-74.406-48.853-117.942h19.079c11.046 0 20-8.954 20-20s-8.954-20-20-20h-19.079c3.971-43.536 20.877-84.35 48.853-117.942l13.492 13.492c7.81 7.81 20.473 7.811 28.284 0s7.811-20.474 0-28.284l-13.492-13.492c33.592-27.976 74.406-44.882 117.942-48.854v19.08c0 11.046 8.954 20 20 20s20-8.954 20-20v-19.08c43.536 3.972 84.35 20.877 117.942 48.853l-13.492 13.492c-7.811 7.811-7.811 20.474 0 28.284 7.81 7.81 20.473 7.811 28.284 0l13.492-13.492c27.976 33.593 44.882 74.407 48.853 117.942h-19.079c-11.046 0-20 8.954-20 20s8.954 20 20 20h19.079c-3.971 43.537-20.877 84.351-48.853 117.943zm-123.8-123.8c7.811 7.811 7.811 20.474 0 28.284-7.811 7.811-20.474 7.81-28.284 0l-28.284-28.284c-3.751-3.75-5.858-8.838-5.858-14.142v-76c0-11.046 8.954-20 20-20s20 8.954 20 20v67.716z" fill="url(#SVGID_1_)"/></g></svg>