<svg id="Calque_3" data-name="Calque 3" xmlns="http://www.w3.org/2000/svg" viewBox="0 0 441.45 216.75"><defs><style>.cls-1{fill:#f5cc71;}.cls-2{fill:#fff;}</style></defs><rect class="cls-1" y="96.59" width="28.49" height="13.99" rx="7"/><path class="cls-1" d="M261.44,306.77c-17.18-19.84-23.91-29-31.48-50-5-13.8-2.16-33.14.37-44.77a10.65,10.65,0,0,0-7.92-12.58,2.36,2.36,0,0,0-2.9,2.09c0,.51-.1,1-.16,1.52a89.07,89.07,0,0,1-24.42,51.81,42.48,42.48,0,0,1-30.73,13H77.54a7,7,0,1,0-.18,14h74.73l-.28.15a7,7,0,0,1-1.43,13.84H94.44a7,7,0,1,0-.18,14h25.66a7,7,0,0,1,0,14H65.29a7,7,0,1,0-.18,14h51.43a7,7,0,0,1,7,7h0a7,7,0,0,1-7,7H89.78a7,7,0,1,0-.18,14h23.5a79.88,79.88,0,0,1,23.63,3.58h0a39.86,39.86,0,0,1,5.7,2.23A33.38,33.38,0,0,1,152.67,379a5.27,5.27,0,0,1,.41,6.85l-6,7.88a7,7,0,1,0,11,8.62l6.86-9a3.75,3.75,0,0,1,4.14-1.32l.06,0a3.84,3.84,0,0,1,2.63,4.53L169.26,407a7,7,0,1,0,13.57,3.44L186.3,396a3.83,3.83,0,0,1,3.39-2.91l.32,0a3.82,3.82,0,0,1,4.13,3.29L196,409.87a7,7,0,1,0,13.89-1.7l-1.6-11.84a5.11,5.11,0,0,1,4.7-5.79h0c10.56-.77,24,10.53,44.68-1.13S286.8,336.07,261.44,306.77Z" transform="translate(-50.1 -199.36)"/><path class="cls-2" d="M155.54,359.25c1.59-11.85,5.78-38.17,13.68-57.84a1.49,1.49,0,0,0-2.45-1.62,58.53,58.53,0,0,0-15,29,67.62,67.62,0,0,0,.88,30.66A1.5,1.5,0,0,0,155.54,359.25Z" transform="translate(-50.1 -199.36)"/><path class="cls-2" d="M229.29,311.36c-.66,11.94-2.77,38.51-9.1,58.74a1.49,1.49,0,0,0,2.57,1.42,58.55,58.55,0,0,0,12.71-30.11,67.66,67.66,0,0,0-3.28-30.49A1.5,1.5,0,0,0,229.29,311.36Z" transform="translate(-50.1 -199.36)"/><path class="cls-1" d="M371.34,208.69V257.6A33,33,0,0,1,369.79,268a20.93,20.93,0,0,1-4.87,8.13,22.46,22.46,0,0,1-8.58,5.37,36.75,36.75,0,0,1-12.67,1.93H318.33V270.33H342.9a23.32,23.32,0,0,0,7.36-1,12.37,12.37,0,0,0,4.7-2.71,9.38,9.38,0,0,0,2.49-4.1,17.23,17.23,0,0,0,.72-5v-48.8Z" transform="translate(-50.1 -199.36)"/><path class="cls-1" d="M426.12,225q10.39,0,15.05,4.7t4.64,13.22q0,8.09-4.53,12.45T426,259.7H398.23v4.21a8.32,8.32,0,0,0,2,5.81c1.36,1.51,3.67,2.27,6.91,2.27h35.75v11.39H407.19a26.65,26.65,0,0,1-9.35-1.43,16.86,16.86,0,0,1-6.31-4,15.41,15.41,0,0,1-3.59-6.09,25.24,25.24,0,0,1-1.11-7.69V244.21a25.36,25.36,0,0,1,1.11-7.63,15.29,15.29,0,0,1,3.59-6.15,16.86,16.86,0,0,1,6.31-4,26.88,26.88,0,0,1,9.35-1.43Zm-27.89,25.56h27.44c3.17,0,5.41-.63,6.7-1.88a6.78,6.78,0,0,0,1.93-5.09,7.18,7.18,0,0,0-2-5.32c-1.33-1.32-3.43-2-6.31-2H407.19c-3.24,0-5.55.78-6.91,2.33a8.37,8.37,0,0,0-2,5.75Z" transform="translate(-50.1 -199.36)"/><path class="cls-1" d="M462.3,225V211.12h11.84V225H490.3v11.28H474.14v27.67q0,5,1.83,6.86t6,1.88h8.08v10.73H479.56a27.1,27.1,0,0,1-7.8-1,11.65,11.65,0,0,1-5.36-3.32,14.26,14.26,0,0,1-3.1-6.2,39,39,0,0,1-1-9.63v-27h-8V225Z" transform="translate(-50.1 -199.36)"/><path class="cls-1" d="M338.28,353.91v29.2q0,6.33-2.72,9.38t-7.95,3.05h-8a12.1,12.1,0,0,1-9.21-3.57c-2.25-2.39-3.38-6-3.38-11s1.13-8.56,3.38-10.94a12.07,12.07,0,0,1,9.21-3.58H332.4V353.91Zm-12.37,36q3.51,0,5-1.65t1.49-5.39V372.11H320.13q-3.79,0-5.52,2.09T312.87,381q0,4.74,1.74,6.79t5.52,2.07Z" transform="translate(-50.1 -199.36)"/><path class="cls-1" d="M353,353.91v8.91q0,7.8-7.15,7.81H344v-4.79h.66c1.43,0,2.14-.79,2.14-2.36v-9.57Z" transform="translate(-50.1 -199.36)"/><path class="cls-1" d="M372.59,395.54H358.21l26.22-66.39q2.1-5.32,5.92-7.47a19.75,19.75,0,0,1,9.8-2.16,19.51,19.51,0,0,1,9.68,2.16q3.81,2.15,5.81,7.47l25.23,66.39h-14.5l-22.68-60.09a3.65,3.65,0,0,0-3.65-2.54,3.85,3.85,0,0,0-3.77,2.54Z" transform="translate(-50.1 -199.36)"/><path class="cls-1" d="M463.11,315.09V328.7H451.27V315.09Zm-.11,22v58.43H451.27V337.11Z" transform="translate(-50.1 -199.36)"/><path class="cls-1" d="M491.55,311.77v83.77H479.82V311.77Z" transform="translate(-50.1 -199.36)"/></svg>