<svg id="Calque_2" data-name="Calque 2" xmlns="http://www.w3.org/2000/svg" viewBox="0 0 582.74 179.27"><defs><style>.cls-1{fill:#f5cc71;}</style></defs><path class="cls-1" d="M116.34,209.3l-2.13-.34c-7.95-1.24-18.12-5.39-22.79-7.43v5.13l.77.87c13.44,15,31,19.84,41.07,21.46H134c19.28-2,24-12.84,25.13-19.52C144.86,213.83,126.61,210.94,116.34,209.3Z" transform="translate(-5.49 -66.15)"/><path class="cls-1" d="M50.86,233.38c7.12,5.53,21.18,13.92,39,11.67,16.75,2.12,30.19-5.19,37.64-10.67C117,232,102.27,226.7,90,214.45,79.26,226.64,62.79,231.47,50.86,233.38Z" transform="translate(-5.49 -66.15)"/><path class="cls-1" d="M77.07,174.35a54.08,54.08,0,0,0,9.59.85V123.83a3.17,3.17,0,0,1,3.17-3.17h0A3.17,3.17,0,0,1,93,123.83v51.31a59.35,59.35,0,0,0,9.34-.95c.11-.2.23-.44.37-.71,2.39-4.59,9.67-18.58,25.43-17.63,12.79.77,30.71,10,39,14.56l0-.26c17.38-37.75-3-65.62-3-65.62-27.27-41-74.34-38.34-74.34-38.34s-47.07-2.7-74.34,38.34c0,0-20.25,27.72-3.13,65.31,9.94-6.26,23.52-13.16,36.08-13.92C68.77,154.66,75.35,169.06,77.07,174.35Z" transform="translate(-5.49 -66.15)"/><path class="cls-1" d="M87.28,207.76l1-1.31v-4.83l-23,8.52a56.85,56.85,0,0,1-19.85,3.46,74.93,74.93,0,0,1-24.95-4.55c.88,5.9,4.63,15.29,19.18,18.78A7.51,7.51,0,0,0,42,228C52.84,227.13,75.72,223.45,87.28,207.76Z" transform="translate(-5.49 -66.15)"/><path class="cls-1" d="M127.76,162.18c-11.66-.65-17.1,9.76-19.42,14.22a11.62,11.62,0,0,1-1.35,2.26c-.74.86-2.27,2.66-17.1,2.92h0c-12.49,0-16.11-1.44-17.1-2.06l-1.17-.74-.25-1.36c-.13-.65-3.49-16.31-22.53-15.17-12.24.74-26.1,8.35-35.57,14.59.4,3.81.81,8.35.84,11.09A26.31,26.31,0,0,0,17.54,201c8.16,3.57,27.05,10,45.5,3.16l25.2-9.35V190.9l-22.81-5.38a15.53,15.53,0,1,1,1-5.46,14.55,14.55,0,0,1-.21,2.39L89.87,188l23.54-4.32a15.57,15.57,0,1,1,1.07,3L91.42,191v3.61l.13.06c.14.06,14.09,6.57,23.63,8.05l2.16.34c10.72,1.72,30.69,4.91,43.68-1l.6-.51a16,16,0,0,0,2.71-5.58,25.86,25.86,0,0,0,1.23-7.81c0-2.61.4-7,.8-10.87C160.13,173.69,140.48,162.94,127.76,162.18Z" transform="translate(-5.49 -66.15)"/><path class="cls-1" d="M227.78,66.29v42a14.62,14.62,0,0,0,.62,4.33,8,8,0,0,0,2.14,3.53,10.57,10.57,0,0,0,4.05,2.33,20,20,0,0,0,6.33.86h25v11.24H240.26a31.64,31.64,0,0,1-10.91-1.67A19.31,19.31,0,0,1,222,124.3a17.54,17.54,0,0,1-4.15-7,29.24,29.24,0,0,1-1.28-8.91V66.29Z" transform="translate(-5.49 -66.15)"/><path class="cls-1" d="M308.08,80.29a23.14,23.14,0,0,1,8,1.24A14.49,14.49,0,0,1,321.56,85a13.13,13.13,0,0,1,3.09,5.28,21.85,21.85,0,0,1,1,6.58v23.62a22,22,0,0,1-.43,4.67,6.4,6.4,0,0,1-1.57,3.09,6.87,6.87,0,0,1-3.2,1.77,19.71,19.71,0,0,1-5.19.57H291.69q-9,0-12.9-4.1t-4-11.24a18.7,18.7,0,0,1,.91-6.09,10.81,10.81,0,0,1,2.9-4.53,13.43,13.43,0,0,1,5.24-2.86,27.35,27.35,0,0,1,7.91-1H315.7V97A7.25,7.25,0,0,0,313.94,92c-1.18-1.33-3.16-2-6-2h-30.1V80.29Zm4.86,40.49c1.84,0,2.76-.86,2.76-2.57v-9.44H292q-4,0-5.62,1.58a5.74,5.74,0,0,0-1.62,4.33,6.09,6.09,0,0,0,1.62,4.43q1.62,1.67,5.43,1.67Z" transform="translate(-5.49 -66.15)"/><path class="cls-1" d="M268.74,180.6v11.24H243.88q-9.34,0-13.58,4.9t-4.24,16.06q0,11,4.19,15.95t13.63,4.91h24.86V244.9H243.88q-14.1,0-21.58-8t-7.48-24.14q0-16.29,7.48-24.25t21.58-8Z" transform="translate(-5.49 -66.15)"/><path class="cls-1" d="M311.7,194.6a23.14,23.14,0,0,1,8,1.24,14.49,14.49,0,0,1,5.48,3.48,13.13,13.13,0,0,1,3.09,5.28,21.85,21.85,0,0,1,1,6.58V234.8a22,22,0,0,1-.43,4.67,6.4,6.4,0,0,1-1.57,3.09,7,7,0,0,1-3.19,1.77,19.84,19.84,0,0,1-5.2.57H295.31q-9,0-12.9-4.1t-4-11.24a18.77,18.77,0,0,1,.91-6.1,10.84,10.84,0,0,1,2.9-4.52,13.43,13.43,0,0,1,5.24-2.86,27.35,27.35,0,0,1,7.91-1h23.91v-3.81a7.23,7.23,0,0,0-1.76-5c-1.18-1.34-3.16-2-6-2H281.5V194.6Zm4.86,40.49q2.76,0,2.76-2.58v-9.43H295.6c-2.67,0-4.54.53-5.62,1.57a5.78,5.78,0,0,0-1.62,4.34,6.09,6.09,0,0,0,1.62,4.43q1.62,1.67,5.43,1.67Z" transform="translate(-5.49 -66.15)"/><path class="cls-1" d="M371.33,194.6q12.85,0,19.1,5.76t6.24,16.25V244.9h-10.2V216.61c0-4-1.19-7.05-3.57-9.15s-6.24-3.14-11.57-3.14H354.85c-.83,0-1.24.47-1.24,1.43V244.9h-10.1V202.41q0-4.47,1.62-6.14t5.43-1.67Z" transform="translate(-5.49 -66.15)"/><path class="cls-1" d="M412.67,194.6V182.69h10.19V194.6h13.91v9.72H422.86v23.81c0,2.86.53,4.83,1.57,5.91s2.78,1.62,5.2,1.62h6.95v9.24h-9.05a23.25,23.25,0,0,1-6.72-.86,10,10,0,0,1-4.62-2.86,12.44,12.44,0,0,1-2.66-5.33,34,34,0,0,1-.86-8.29V204.32h-6.86V194.6Z" transform="translate(-5.49 -66.15)"/><path class="cls-1" d="M456.77,175.65v11.71H446.58V175.65Zm-.09,18.95v50.3h-10.1V194.6Z" transform="translate(-5.49 -66.15)"/><path class="cls-1" d="M499,194.6q12.87,0,19.1,5.76t6.24,16.25V244.9H514.12V216.61c0-4-1.19-7.05-3.57-9.15s-6.24-3.14-11.58-3.14H482.49c-.82,0-1.24.47-1.24,1.43V244.9H471.16V202.41q0-4.47,1.62-6.14t5.43-1.67Z" transform="translate(-5.49 -66.15)"/><path class="cls-1" d="M570.7,194.6a23.14,23.14,0,0,1,8,1.24,14.49,14.49,0,0,1,5.48,3.48,13.13,13.13,0,0,1,3.09,5.28,21.85,21.85,0,0,1,1,6.58V234.8a22,22,0,0,1-.43,4.67,6.4,6.4,0,0,1-1.57,3.09,7,7,0,0,1-3.19,1.77,19.84,19.84,0,0,1-5.2.57H554.31q-9,0-12.9-4.1t-4-11.24a18.77,18.77,0,0,1,.91-6.1,10.84,10.84,0,0,1,2.9-4.52,13.43,13.43,0,0,1,5.24-2.86,27.35,27.35,0,0,1,7.91-1h23.91v-3.81a7.23,7.23,0,0,0-1.76-5c-1.18-1.34-3.16-2-6-2H540.5V194.6Zm4.86,40.49q2.76,0,2.76-2.58v-9.43H554.6c-2.67,0-4.54.53-5.62,1.57a5.78,5.78,0,0,0-1.62,4.34,6.09,6.09,0,0,0,1.62,4.43q1.62,1.67,5.43,1.67Z" transform="translate(-5.49 -66.15)"/></svg>